<svg width="82" height="56" viewBox="0 0 82 56" fill="none" xmlns="http://www.w3.org/2000/svg">
<path d="M81.964 45.2862C81.964 45.2842 81.9643 45.2818 81.9626 45.2791C81.4928 43.8873 80.512 42.927 79.5246 41.9707C77.737 40.2394 75.6013 39.1107 73.4338 38.0613C72.6843 37.6986 72.2728 38.1966 71.8898 38.5933C70.4834 40.0497 69.2081 41.5454 67.6974 42.8321C66.2043 44.1036 64.5734 45.2924 62.8795 46.2044C58.9057 48.3427 54.6396 49.7375 50.1837 50.7628C48.4304 51.1663 46.5264 51.3632 44.6869 51.6888C44.6739 51.7504 44.6612 51.8095 44.6475 51.8711C46.9979 52.8175 49.3371 53.9393 51.6786 54.8908C54.1585 55.8991 57.1322 56.1667 59.5149 54.7929C61.7545 53.5011 63.827 51.9037 66.2108 50.7156C66.2156 50.7149 66.218 50.7115 66.22 50.7101C66.3755 50.6109 66.5289 50.5126 66.6847 50.413C68.2483 49.4057 70.1958 49.1253 72.0857 48.8254C72.1056 48.8221 72.1262 48.8197 72.1458 48.8166C73.8267 48.5273 75.6192 48.252 77.3632 48.0521C77.4377 48.0436 77.5129 48.0334 77.5867 48.0252C77.5894 48.0235 77.5915 48.0245 77.5952 48.0232C78.5911 47.8178 79.5826 47.5911 80.5689 47.3514C80.7391 47.31 80.9063 47.2525 81.0693 47.1804C81.0717 47.1787 81.0737 47.1794 81.0758 47.1777C81.3709 47.0139 81.6386 46.7987 81.8058 46.4985C82.0003 46.1507 82.0391 45.7183 81.964 45.2862Z" fill="#262626"/>
<path d="M45.0209 6.28521C45.6673 6.72767 46.541 6.91923 47.3874 6.93711C49.5477 6.9823 50.9216 6.71385 52.9495 7.57754C54.5444 8.25675 55.8517 9.33628 56.5023 10.6664C57.0074 11.6984 57.1491 12.8453 57.7824 13.8378C58.2537 14.5757 59.1973 15.3291 60.3054 15.3936C61.4048 15.4576 62.4526 14.8563 63.5831 14.8779C64.7494 14.9005 65.9454 15.3598 66.3367 16.2458C66.6446 16.9432 66.4163 17.76 66.1361 18.4864C65.0769 21.2279 63.4924 23.8291 62.0537 26.3905C62.0009 26.4849 61.9978 26.6026 61.9382 26.8468C62.7994 26.7355 63.5562 26.607 64.3198 26.5355C65.4124 26.4337 66.5112 26.3332 67.6075 26.2903C68.8197 26.2431 70.0367 26.2654 71.2438 26.2451C71.3827 26.2428 71.5296 26.205 71.6585 26.1591C74.326 25.2051 76.0843 22.1962 74.9241 19.567C74.4149 18.4143 73.4196 17.4572 72.5594 16.5139C70.3015 14.0375 68.0881 11.3608 65.7254 9.01522C63.2631 6.57085 60.0823 4.63742 56.6429 3.6621C53.8035 2.8571 50.7488 2.67937 47.8573 3.25606C46.1566 3.59499 42.268 4.40067 45.0209 6.28521Z" fill="#37535C"/>
<path d="M49.5129 13.0102C50.5543 14.173 50.2003 15.3341 49.3572 16.4478C49.0748 16.8207 48.8465 17.2193 48.4625 17.8008C51.3127 17.6581 54.1009 17.083 56.904 16.5919C56.48 16.1066 56.1253 15.6992 55.836 15.3707C54.3596 15.5462 52.9486 15.7006 51.5376 15.842C51.5218 15.8041 51.5056 15.7658 51.4914 15.7279C52.2395 15.3584 53.0299 15.0241 53.7328 14.5968C55.7192 13.3889 55.2874 12.931 54.1295 11.4191C53.1122 10.09 51.3237 9.45482 49.3307 9.29602C47.6683 9.16317 45.9928 8.85787 44.3408 9.21064C44.0594 9.27075 43.7873 9.36364 43.4805 9.44833C44.9906 10.2136 46.4433 10.868 47.804 11.6138C48.4659 11.9775 49.0438 12.487 49.5129 13.0102Z" fill="#F70F12"/>
<path d="M32.9197 11.4644C32.7255 11.6058 32.5037 11.7248 32.3357 11.8866C31.4471 12.7434 33.301 13.3455 34.0311 13.7224C35.1313 14.2904 36.2097 14.8844 37.3511 15.378C37.3532 15.3783 37.3552 15.382 37.358 15.3803C37.3644 15.3827 37.3685 15.385 37.3706 15.3857C37.6568 15.4608 37.8861 15.4397 37.9075 15.2041C37.9075 15.2041 37.9079 15.2008 37.9065 15.1971C37.6728 14.7273 37.3212 14.1346 37.4564 13.6333C37.5648 13.2322 37.9242 12.8935 38.4019 12.7417C39.0384 12.539 39.7989 12.6666 40.4688 12.8787C41.4395 13.186 42.3288 13.6675 43.0365 14.2743C43.3046 14.5038 43.551 14.7565 43.6876 15.0443C43.8246 15.3321 43.8399 15.6618 43.66 15.9235C43.1693 15.246 42.7083 14.5661 41.6545 14.353C41.0102 14.2224 40.2919 14.3433 39.8602 14.7082C39.4296 15.0734 39.3427 15.6849 39.7137 16.1259C40.0418 16.5169 40.6344 16.7156 41.1996 16.8483C43.0651 17.2879 45.444 17.5017 47.0188 16.5129C47.7677 16.0428 48.2488 15.2845 48.132 14.5273C48.0417 13.9449 47.6137 13.3941 47.0791 12.992C44.8607 11.3244 42.0398 10.3637 39.2503 9.90166C38.2888 9.74217 37.314 9.67046 36.3494 9.52471C35.5296 9.4004 34.7426 9.16954 33.9388 9.04657C33.9347 9.0459 33.932 9.04724 33.9272 9.04824C33.7385 9.11526 33.7139 9.38331 33.7211 9.66745C33.7279 9.92746 33.7609 10.1999 33.7194 10.3439C33.596 10.7779 33.3204 11.1729 32.9197 11.4644Z" fill="#F70F12"/>
<path d="M55.6825 28.8641C56.9593 28.4318 58.128 28.0342 59.285 27.6104C59.4218 27.5598 59.5285 27.4194 59.5945 27.3006C60.3512 25.9391 61.0927 24.5548 61.8453 23.1641C62.4234 22.096 63.024 21.0249 63.588 19.9303C64.0118 19.1076 63.9828 18.2519 63.6833 17.4386C63.3884 16.6383 61.8708 16.2182 60.8323 16.6128C56.1536 18.3917 51.1585 19.3834 46.122 18.8507C43.5389 18.578 40.9846 18.0022 38.5801 17.1231C37.3796 16.6844 36.2161 16.1707 35.105 15.5824C34.666 15.3497 32.111 14.1167 32.1072 13.7153C32.1117 14.2087 32.043 14.7189 32.2478 15.2061C33.1616 17.3813 34.5407 19.3671 36.2527 21.1871C37.3098 22.3111 38.3391 23.4569 39.5192 24.4876C40.9863 25.7684 42.6458 26.9162 44.1388 28.1784C45.3773 29.2254 46.5519 30.3318 47.6481 31.4793C48.3468 32.2108 48.5002 32.2705 49.4244 31.7894C50.7755 31.0857 52.1345 30.3708 53.5806 29.7856C54.4599 29.4293 54.4271 28.9054 54.3397 28.3103C54.2205 27.5022 53.9667 26.6947 53.9204 25.8895C53.8403 24.4907 54.568 23.3653 56.0106 22.569C57.0605 21.9895 58.1702 21.4673 59.3582 20.9662C57.104 23.0033 55.248 25.7101 55.6825 28.8641ZM53.8344 22.2124C51.4223 23.6706 48.4684 24.0588 45.682 23.8243C43.9914 23.6818 42.2196 23.0857 40.6503 22.4295C39.5029 21.9498 38.3318 21.2502 37.8217 19.9673C39.1261 20.3277 40.2562 20.7039 41.4163 20.9265C44.1796 21.4568 47.0465 21.6627 49.8471 21.3482C52.9119 21.0038 55.9246 20.1248 58.7473 18.8996C59.2774 18.6696 59.9084 18.5868 60.4945 18.4334C58.252 19.8068 55.9253 20.9482 53.8344 22.2124Z" fill="#F70F12"/>
<path d="M31.5531 9.05396C30.4561 7.60843 27.4679 9.15262 26.9733 10.0717C26.4478 11.0482 26.5149 12.2299 26.6527 13.3578C26.9196 15.5372 27.426 17.7714 28.6591 19.7021C30.4629 22.5273 33.4205 24.4999 36.37 26.0306C37.793 26.7689 39.4447 27.3788 40.7183 28.2648C42.1637 29.27 43.3934 30.5219 44.4668 31.7782C44.75 32.1094 44.9865 32.5246 45.3419 32.8146C45.3579 32.8274 45.3739 32.8406 45.3902 32.8531C45.4937 32.9318 46.0995 33.1677 46.1063 33.2667C46.0171 31.418 44.0856 29.8776 42.631 28.5334C40.9487 26.9787 39.058 25.54 37.2678 24.0874C34.9589 22.2137 32.7014 20.0076 31.3723 17.3433C30.5732 15.7409 30.255 13.892 30.5926 12.217C30.7631 11.3696 32.2569 9.98149 31.5531 9.05396Z" fill="#F70F12"/>
<path d="M26.1321 33.5322C26.5718 34.6354 27.2505 35.7323 28.4474 36.3877C29.3083 36.8588 30.3241 37.047 31.3747 37.0597C32.4696 37.0724 33.6024 36.8928 34.6346 36.6349C37.7321 35.8602 42.5566 35.4194 43.9179 34.2436C45.0692 33.2493 39.0975 28.8525 36.9742 27.8122C34.4315 26.5661 31.523 25.4136 29.1693 23.7166C28.5536 23.2728 28.395 22.8423 27.7221 23.1665C26.1999 23.8999 25.7023 26.7467 25.5057 28.0548C25.2318 29.8864 25.4324 31.7773 26.1321 33.5322Z" fill="#37535C"/>
<path d="M69.509 27.75C66.7724 27.8632 64.0433 28.3661 61.4083 29.1096C60.1828 29.4552 58.9762 29.8379 57.7929 30.2518C47.655 34.4265 37.4548 37.7551 26.6185 38.8374C26.3697 38.8622 26.1466 38.9207 25.955 39.0128C24.3627 39.778 24.7192 42.7168 25.2743 43.6962C28.1711 48.8078 36.4234 50.2785 41.8488 49.8215C44.4776 49.6003 47.0459 49.1785 49.4304 48.4255C50.5757 48.0636 51.7002 47.7673 52.8107 47.3367C53.9749 46.8854 55.1178 46.4069 56.2386 45.8982C58.4578 44.8903 60.5894 43.7614 62.6238 42.4878C64.6179 41.2396 66.5192 39.8521 68.3178 38.3117C70.1558 36.7376 72.0773 35.0412 73.4926 32.9982C73.4978 32.9911 73.5029 32.9836 73.5077 32.9758C73.5347 32.9272 73.546 32.8586 73.5803 32.7423C73.1545 32.9857 72.1615 32.8423 71.679 32.8491C69.0073 32.8871 66.3155 32.9918 63.659 33.2898C62.2751 33.4451 60.8943 33.6466 59.5289 33.8845C58.8465 34.0031 58.1669 34.1319 57.4911 34.2702C57.269 34.3157 55.677 34.7877 55.5562 34.696C55.3269 34.5223 55.6613 34.4479 55.8307 34.3555C56.7286 33.8665 57.5051 33.3455 58.5132 32.9931C59.5429 32.6333 60.6099 32.338 61.6975 32.0933C63.8561 31.6084 66.0859 31.3256 68.3181 31.1313C70.1353 30.9732 71.9565 30.8723 73.7712 30.754C75.5041 30.6416 77.402 30.6691 79.0823 30.2681C78.5628 29.5256 78.0272 29.1966 77.1649 28.8313C74.7718 27.819 72.1266 27.6416 69.509 27.75Z" fill="#37535C"/>
<path d="M1.04859 29.9158C4.27728 31.1337 7.30635 32.614 10.1293 34.5224C11.4606 35.4229 12.793 36.5075 14.0165 37.5246C16.3335 39.4507 18.8072 41.4841 21.7023 42.5549C21.7704 42.58 21.8581 42.577 22.0736 42.6048C21.4333 40.3152 21.8481 38.2956 24.8043 37.3143C20.9153 33.9943 18.8214 27.4668 16.6236 22.9921C16.1594 22.0478 15.638 21.0426 14.7069 20.3654C12.776 18.9609 9.11427 20.7283 7.42067 21.7022C5.62691 22.7339 3.82487 23.7961 2.42033 25.4269C1.77003 26.182 1.06172 26.9098 0.455973 27.7227C-0.321412 28.7659 -0.0924537 29.4853 1.04859 29.9158Z" fill="#262626"/>
<path d="M18.1994 21.7823C19.4377 24.2779 20.6787 26.8394 21.9476 29.3526C22.4989 30.4441 22.8675 31.5882 23.3292 32.6926C23.4005 32.8625 23.5318 33.218 23.743 33.2669C23.938 32.7606 23.7096 31.9263 23.6765 31.3837C23.6365 30.7363 23.5883 30.0883 23.5221 29.4396C23.3919 28.1698 23.1924 26.8975 22.8568 25.6341C22.7762 25.3296 22.6877 25.0258 22.5912 24.7234C21.9045 22.5581 20.8389 20.4414 19.5551 18.3659C18.4123 16.518 16.342 14.3504 16.8478 12.165C16.8561 12.1297 16.8623 12.0923 16.8726 12.0573C16.9735 11.1018 17.3642 10.2645 17.7804 9.43466C18.9474 9.74253 19.0377 10.7161 19.0476 11.5537C19.0721 13.6813 20.1202 15.784 21.2702 17.706C21.9679 18.8725 22.7118 20.0082 23.3168 21.1788C23.9235 22.3515 24.1619 23.4817 24.5268 24.6758C24.7252 24.441 24.9289 24.2293 25.0949 24.0016C26.0052 22.7525 26.7852 21.4741 26.3697 19.9028C26.1385 19.0289 25.806 18.1603 25.4846 17.2867C25.0636 16.1439 24.3935 15.0395 24.113 13.8552C23.846 12.7261 23.8632 11.567 24.1805 10.5037C24.4782 9.50466 25.0391 8.59601 25.8023 7.84945C26.1833 7.476 26.616 7.14264 27.0915 6.85618C27.5012 6.60948 27.8364 6.5021 27.9883 6.08516C26.9378 5.86496 25.845 5.46058 24.7924 5.46874C23.0832 5.48165 21.438 5.77321 19.7622 5.89112C19.2137 5.92952 18.6259 5.81772 17.8049 5.75044C18.1553 5.53059 18.2893 5.39296 18.4716 5.34063C20.3366 4.80237 22.205 4.25188 24.1051 3.76425C26.2508 3.21342 28.6436 3.54338 30.9413 4.28212C32.9135 4.91621 34.4384 6.09093 36.3464 6.75322C36.6255 6.85007 38.7561 7.27959 40.3268 7.4342C41.2977 7.52969 42.0557 7.52459 42.0202 7.31765C41.193 2.48113 33.9643 1.60986 30.027 1.06106C25.652 0.451445 21.2151 -0.0103575 16.7865 0.000176652C13.7194 0.00731266 11.5998 2.67686 11.4065 5.48879C11.1974 8.52261 12.2892 11.5609 13.8245 14.2066C15.287 16.729 16.916 19.1957 18.1994 21.7823Z" fill="#37535C"/>
</svg>
