<svg width="154" height="152" viewBox="0 0 154 152" fill="none" xmlns="http://www.w3.org/2000/svg">
<path d="M73.3333 151.667C63.1889 151.667 53.6556 149.675 44.7333 145.691C35.8111 141.707 28.05 136.305 21.45 129.485C14.85 122.665 9.62623 114.64 5.77868 105.408C1.93112 96.1769 0.00489817 86.3186 9.2827e-06 75.8333C-0.00487961 65.3481 1.92134 55.4898 5.77868 46.2583C9.63601 37.0269 14.8598 29.0012 21.45 22.1813C28.0402 15.3613 35.8013 9.95945 44.7333 5.97567C53.6653 1.99189 63.1987 0 73.3333 0C91.9111 0 108.015 6.19306 121.645 18.5792C135.276 30.9653 143.372 46.3847 145.933 64.8375C143.489 63.5736 140.954 62.5954 138.329 61.9028C135.703 61.2101 132.983 60.7981 130.167 60.6667C127.844 51.4403 123.657 43.225 117.605 36.0208C111.552 28.8167 104.128 23.3819 95.3333 19.7167V22.75C95.3333 26.9208 93.8985 30.4926 91.0287 33.4653C88.1589 36.4379 84.7049 37.9217 80.6667 37.9167H66V53.0833C66 55.2319 65.296 57.0343 63.888 58.4903C62.48 59.9463 60.7396 60.6717 58.6667 60.6667H44V75.8333H88C89.3445 75.8333 90.5984 76.1822 91.762 76.8798C92.9256 77.5775 93.8105 78.5557 94.4167 79.8146C92.3389 83.2271 90.75 86.8292 89.65 90.6208C88.55 94.4125 88 98.3306 88 102.375C88 110.338 89.9873 117.731 93.962 124.556C97.9367 131.381 101.999 137.764 106.15 143.704C101.139 146.232 95.8833 148.191 90.3833 149.581C84.8833 150.972 79.2 151.667 73.3333 151.667ZM66 136.121V121.333C61.9667 121.333 58.5151 119.85 55.6453 116.882C52.7756 113.914 51.3382 110.343 51.3333 106.167V98.5833L16.1333 62.1833C15.7667 64.4583 15.4318 66.7333 15.1287 69.0083C14.8256 71.2833 14.6716 73.5583 14.6667 75.8333C14.6667 91.1264 19.5262 104.524 29.2453 116.025C38.9645 127.526 51.216 134.225 66 136.121ZM128.333 151.667C127.478 151.667 126.744 151.414 126.133 150.908C125.522 150.403 125.094 149.771 124.85 149.012C123.506 144.589 121.611 140.481 119.167 136.69C116.722 132.898 114.094 129.169 111.283 125.504C108.717 122.218 106.639 118.616 105.05 114.698C103.461 110.78 102.667 106.672 102.667 102.375C102.667 95.0444 105.172 88.7882 110.183 83.6062C115.194 78.4243 121.244 75.8333 128.333 75.8333C135.422 75.8333 141.472 78.4243 146.483 83.6062C151.494 88.7882 154 95.0444 154 102.375C154 106.672 153.176 110.75 151.529 114.607C149.881 118.464 147.833 122.097 145.383 125.504C142.572 129.169 139.944 132.898 137.5 136.69C135.056 140.481 133.161 144.589 131.817 149.012C131.572 149.771 131.144 150.403 130.533 150.908C129.922 151.414 129.189 151.667 128.333 151.667ZM128.333 130.244C129.556 128.095 130.9 126.106 132.367 124.276C133.833 122.446 135.239 120.58 136.583 118.679C138.294 116.278 139.793 113.72 141.079 111.005C142.364 108.29 143.005 105.413 143 102.375C143 98.2042 141.565 94.6349 138.695 91.6673C135.826 88.6997 132.372 87.2134 128.333 87.2083C124.295 87.2033 120.844 88.6896 117.979 91.6673C115.114 94.6451 113.676 98.2143 113.667 102.375C113.667 105.408 114.31 108.285 115.595 111.005C116.881 113.725 118.377 116.283 120.083 118.679L124.395 124.276C125.798 126.111 127.111 128.1 128.333 130.244ZM128.333 111.854C125.767 111.854 123.596 110.937 121.821 109.101C120.047 107.266 119.162 105.024 119.167 102.375C119.172 99.7259 120.059 97.4812 121.829 95.641C123.598 93.8008 125.767 92.8857 128.333 92.8958C130.9 92.9059 133.071 93.8235 134.845 95.6486C136.62 97.4736 137.505 99.7158 137.5 102.375C137.495 105.034 136.608 107.279 134.838 109.109C133.068 110.939 130.9 111.854 128.333 111.854Z" fill="#F4F4F4"/>
</svg>
